<svg xmlns="http://www.w3.org/2000/svg" viewBox="0 0 64 64" fill="none">
  <title>ISU Thesis AI Library mark</title>
  <path
    fill="#046A38"
    d="M6 18.2c0-3 2.5-5.3 5.5-5 7.8.7 14.2 3.6 19.1 8.5v33.1c-5-4.3-11.5-6.8-19.4-7.4A5.7 5.7 0 0 1 6 41.8V18.2Z"
  />
  <path
    fill="#10B96C"
    d="M58 18.2c0-3-2.5-5.3-5.5-5-7.8.7-14.2 3.6-19.1 8.5v33.1c5-4.3 11.5-6.8 19.4-7.4a5.7 5.7 0 0 0 5.2-5.6V18.2Z"
  />
  <path
    fill="#F8FAF6"
    fill-opacity=".82"
    d="M12.5 29.2c0-1 .9-1.8 1.9-1.6 4.1.6 7.8 2 11 4.3.7.5.9 1.5.4 2.2-.5.7-1.5.9-2.2.4a25.5 25.5 0 0 0-9.7-3.8c-.8-.1-1.4-.7-1.4-1.5ZM51.5 29.2c0-1-.9-1.8-1.9-1.6-4.1.6-7.8 2-11 4.3-.7.5-.9 1.5-.4 2.2.5.7 1.5.9 2.2.4a25.5 25.5 0 0 1 9.7-3.8c.8-.1 1.4-.7 1.4-1.5Z"
  />
  <path
    fill="#F2A900"
    d="M32 4.5c.7 0 1.3.5 1.5 1.1l2.3 6.7c.2.7.8 1.3 1.5 1.5l6.7 2.3c1.5.5 1.5 2.7 0 3.2l-6.7 2.3c-.7.2-1.3.8-1.5 1.5l-2.3 6.7c-.5 1.5-2.7 1.5-3.2 0L28 23.1c-.2-.7-.8-1.3-1.5-1.5l-6.7-2.3c-1.5-.5-1.5-2.7 0-3.2l6.7-2.3c.7-.2 1.3-.8 1.5-1.5l2.3-6.7c.2-.6.8-1.1 1.5-1.1h.2Z"
  />
  <circle cx="15" cy="39" r="2" fill="#FFC72C" />
  <circle cx="49" cy="39" r="2" fill="#FFC72C" />
</svg>
